<svg xmlns="http://www.w3.org/2000/svg" viewBox="0 0 100 100">
  <title>White Knight</title>
  <desc>chess, knight, white knight, white, chess piece, board game, game</desc>
  <path d="M24 92H76Q79 92 79 89V86Q79 83 76 82L70 80H30L24 82Q21 83 21 86V89Q21 92 24 92Z" fill="#FFFFFF" stroke="#111111" stroke-width="3" stroke-linejoin="round"/><path d="M38 78Q36 66 42 56Q46 50 45 45Q38 48 32 55Q27 56 25 51Q22 46 30 38Q37 30 39 24L36 15Q44 15 49 20Q64 21 70 38Q75 54 70 78Z" fill="#FFFFFF" stroke="#111111" stroke-width="3" stroke-linejoin="round"/><path d="M39 27A2.5 2.5 0 1 0 39.1 27M52 22Q63 30 64 44" fill="none" stroke="#111111" stroke-width="2.4" stroke-linecap="round"/>
</svg>
