<svg xmlns="http://www.w3.org/2000/svg" viewBox="0 0 100 100">
  <title>Do Not Enter</title>
  <desc>do not enter, no entry, road sign, usa</desc>
  <circle cx="50" cy="50" r="46" fill="#C8102E"/><rect x="16" y="43" width="68" height="14" rx="1" fill="#FFFFFF"/><path d="M0 0V6H1.5Q4 6 4 3Q4 0 1.5 0Z" transform="translate(28.63 24.50) scale(1.500)" fill="none" stroke="#FFFFFF" stroke-width="1.1" stroke-linecap="round" stroke-linejoin="round"/><path d="M2 0Q4 0 4 3Q4 6 2 6Q0 6 0 3Q0 0 2 0Z" transform="translate(37.17 24.50) scale(1.500)" fill="none" stroke="#FFFFFF" stroke-width="1.1" stroke-linecap="round" stroke-linejoin="round"/><path d="M0 6V0L4 6V0" transform="translate(48.27 24.50) scale(1.500)" fill="none" stroke="#FFFFFF" stroke-width="1.1" stroke-linecap="round" stroke-linejoin="round"/><path d="M2 0Q4 0 4 3Q4 6 2 6Q0 6 0 3Q0 0 2 0Z" transform="translate(56.82 24.50) scale(1.500)" fill="none" stroke="#FFFFFF" stroke-width="1.1" stroke-linecap="round" stroke-linejoin="round"/><path d="M0 0H4M2 0V6" transform="translate(65.37 24.50) scale(1.500)" fill="none" stroke="#FFFFFF" stroke-width="1.1" stroke-linecap="round" stroke-linejoin="round"/><path d="M4 0H0V6H4M0 3H3" transform="translate(29.90 67.50) scale(1.500)" fill="none" stroke="#FFFFFF" stroke-width="1.1" stroke-linecap="round" stroke-linejoin="round"/><path d="M0 6V0L4 6V0" transform="translate(38.45 67.50) scale(1.500)" fill="none" stroke="#FFFFFF" stroke-width="1.1" stroke-linecap="round" stroke-linejoin="round"/><path d="M0 0H4M2 0V6" transform="translate(47.00 67.50) scale(1.500)" fill="none" stroke="#FFFFFF" stroke-width="1.1" stroke-linecap="round" stroke-linejoin="round"/><path d="M4 0H0V6H4M0 3H3" transform="translate(55.55 67.50) scale(1.500)" fill="none" stroke="#FFFFFF" stroke-width="1.1" stroke-linecap="round" stroke-linejoin="round"/><path d="M0 6V0H2.5Q4 0 4 1.5Q4 3 2.5 3H0M2.2 3L4 6" transform="translate(64.10 67.50) scale(1.500)" fill="none" stroke="#FFFFFF" stroke-width="1.1" stroke-linecap="round" stroke-linejoin="round"/>
</svg>
