<svg xmlns="http://www.w3.org/2000/svg" viewBox="0 0 100 100" fill="#222">
  <title>Double Chevron</title>
  <desc>double chevron, fast forward, skip, next, angle</desc>
  <path d="M9.549110721447551 13.962206913833565Q8 12 10.5 12L23.5 12Q26 12 27.54911072144755 13.962206913833565L54.450889278552445 48.03779308616644Q56 50 54.450889278552445 51.96220691383356L27.54911072144755 86.03779308616643Q26 88 23.5 88L10.5 88Q8 88 9.549110721447551 86.03779308616643L36.450889278552445 51.96220691383356Q38 50 36.450889278552445 48.03779308616644Z"/><path d="M45.549110721447555 13.962206913833565Q44 12 46.5 12L59.5 12Q62 12 63.549110721447555 13.962206913833565L90.45088927855245 48.03779308616644Q92 50 90.45088927855245 51.96220691383356L63.549110721447555 86.03779308616643Q62 88 59.5 88L46.5 88Q44 88 45.549110721447555 86.03779308616643L72.45088927855245 51.96220691383356Q74 50 72.45088927855245 48.03779308616644Z"/>
</svg>
