<svg xmlns="http://www.w3.org/2000/svg" viewBox="0 0 100 100">
  <title>Roundabout</title>
  <desc>roundabout, mandatory, circle, road sign, europe</desc>
  <circle cx="50" cy="50" r="46" fill="#0050A0"/><circle cx="50" cy="50" r="44" fill="none" stroke="#FFFFFF" stroke-width="2"/><g transform="rotate(0 50 50)"><path d="M38.5 29A23 23 0 0 1 66 33.5" fill="none" stroke="#FFFFFF" stroke-width="6" stroke-linejoin="round"/><path d="M76.20 38.60L62.11 41.28L69.89 25.72Z" fill="#FFFFFF"/></g><g transform="rotate(120 50 50)"><path d="M38.5 29A23 23 0 0 1 66 33.5" fill="none" stroke="#FFFFFF" stroke-width="6" stroke-linejoin="round"/><path d="M76.20 38.60L62.11 41.28L69.89 25.72Z" fill="#FFFFFF"/></g><g transform="rotate(240 50 50)"><path d="M38.5 29A23 23 0 0 1 66 33.5" fill="none" stroke="#FFFFFF" stroke-width="6" stroke-linejoin="round"/><path d="M76.20 38.60L62.11 41.28L69.89 25.72Z" fill="#FFFFFF"/></g>
</svg>
